<mxfile host="app.diagrams.net" agent="Mozilla/5.0 (Macintosh; Intel Mac OS X 10.15; rv:129.0) Gecko/20100101 Firefox/129.0" version="24.7.8">
  <diagram name="Page-1" id="uC92Zu7D8X2csILMEevF">
    <mxGraphModel dx="2156" dy="863" grid="1" gridSize="10" guides="1" tooltips="1" connect="1" arrows="1" fold="1" page="1" pageScale="1" pageWidth="850" pageHeight="1100" math="0" shadow="0">
      <root>
        <mxCell id="0" />
        <mxCell id="1" parent="0" />
        <mxCell id="kq8cGAj2oKAW3e5R3n5f-2" value="" style="shape=image;html=1;verticalAlign=top;verticalLabelPosition=bottom;labelBackgroundColor=#ffffff;imageAspect=0;aspect=fixed;image=https://cdn1.iconfinder.com/data/icons/fruit-136/64/Fruit_iconfree_Filled_Outline_raspberry-healthy-organic-food-fruit_icon-128.png" vertex="1" parent="1">
          <mxGeometry x="-170" y="495" width="57" height="57" as="geometry" />
        </mxCell>
        <mxCell id="kq8cGAj2oKAW3e5R3n5f-3" value="" style="outlineConnect=0;dashed=0;verticalLabelPosition=bottom;verticalAlign=top;align=center;html=1;shape=mxgraph.aws3.mqtt_protocol;fillColor=#5294CF;gradientColor=none;" vertex="1" parent="1">
          <mxGeometry x="-92" y="426.5" width="42" height="47.5" as="geometry" />
        </mxCell>
        <mxCell id="kq8cGAj2oKAW3e5R3n5f-24" value="" style="edgeStyle=none;rounded=0;orthogonalLoop=1;jettySize=auto;html=1;" edge="1" parent="1" source="kq8cGAj2oKAW3e5R3n5f-4" target="kq8cGAj2oKAW3e5R3n5f-11">
          <mxGeometry relative="1" as="geometry" />
        </mxCell>
        <mxCell id="kq8cGAj2oKAW3e5R3n5f-4" value="" style="outlineConnect=0;dashed=0;verticalLabelPosition=bottom;verticalAlign=top;align=center;html=1;shape=mxgraph.aws3.ecs;fillColor=#F58534;gradientColor=none;" vertex="1" parent="1">
          <mxGeometry x="-299" y="346.75" width="50" height="52" as="geometry" />
        </mxCell>
        <mxCell id="kq8cGAj2oKAW3e5R3n5f-23" value="" style="edgeStyle=none;rounded=0;orthogonalLoop=1;jettySize=auto;html=1;" edge="1" parent="1" source="kq8cGAj2oKAW3e5R3n5f-5" target="kq8cGAj2oKAW3e5R3n5f-4">
          <mxGeometry relative="1" as="geometry" />
        </mxCell>
        <mxCell id="kq8cGAj2oKAW3e5R3n5f-5" value="" style="outlineConnect=0;dashed=0;verticalLabelPosition=bottom;verticalAlign=top;align=center;html=1;shape=mxgraph.aws3.ecr;fillColor=#F58534;gradientColor=none;" vertex="1" parent="1">
          <mxGeometry x="-407.5" y="350" width="50" height="50" as="geometry" />
        </mxCell>
        <mxCell id="kq8cGAj2oKAW3e5R3n5f-28" value="" style="edgeStyle=none;rounded=0;orthogonalLoop=1;jettySize=auto;html=1;" edge="1" parent="1" source="kq8cGAj2oKAW3e5R3n5f-6" target="kq8cGAj2oKAW3e5R3n5f-2">
          <mxGeometry relative="1" as="geometry" />
        </mxCell>
        <mxCell id="kq8cGAj2oKAW3e5R3n5f-6" value="" style="outlineConnect=0;dashed=0;verticalLabelPosition=bottom;verticalAlign=top;align=center;html=1;shape=mxgraph.aws3.s3;fillColor=#E05243;gradientColor=none;" vertex="1" parent="1">
          <mxGeometry x="-291" y="497.5" width="51" height="54.5" as="geometry" />
        </mxCell>
        <mxCell id="kq8cGAj2oKAW3e5R3n5f-7" value="" style="dashed=0;outlineConnect=0;html=1;align=center;labelPosition=center;verticalLabelPosition=bottom;verticalAlign=top;shape=mxgraph.weblogos.github" vertex="1" parent="1">
          <mxGeometry x="-672" y="420" width="75" height="75" as="geometry" />
        </mxCell>
        <mxCell id="kq8cGAj2oKAW3e5R3n5f-21" value="" style="edgeStyle=none;rounded=0;orthogonalLoop=1;jettySize=auto;html=1;" edge="1" parent="1" source="kq8cGAj2oKAW3e5R3n5f-8" target="kq8cGAj2oKAW3e5R3n5f-19">
          <mxGeometry relative="1" as="geometry" />
        </mxCell>
        <mxCell id="kq8cGAj2oKAW3e5R3n5f-8" value="iot-pyapp" style="shape=step;perimeter=stepPerimeter;whiteSpace=wrap;html=1;fixedSize=1;" vertex="1" parent="1">
          <mxGeometry x="-702" y="360" width="140" height="40" as="geometry" />
        </mxCell>
        <mxCell id="kq8cGAj2oKAW3e5R3n5f-25" value="" style="edgeStyle=none;rounded=0;orthogonalLoop=1;jettySize=auto;html=1;" edge="1" parent="1" source="kq8cGAj2oKAW3e5R3n5f-9" target="kq8cGAj2oKAW3e5R3n5f-20">
          <mxGeometry relative="1" as="geometry" />
        </mxCell>
        <mxCell id="kq8cGAj2oKAW3e5R3n5f-9" value="mqtt-pipy" style="shape=step;perimeter=stepPerimeter;whiteSpace=wrap;html=1;fixedSize=1;" vertex="1" parent="1">
          <mxGeometry x="-702" y="510" width="140" height="40" as="geometry" />
        </mxCell>
        <mxCell id="kq8cGAj2oKAW3e5R3n5f-10" value="" style="image;sketch=0;aspect=fixed;html=1;points=[];align=center;fontSize=12;image=img/lib/mscae/App_Configuration.svg;" vertex="1" parent="1">
          <mxGeometry x="-550" y="750" width="50" height="49" as="geometry" />
        </mxCell>
        <mxCell id="kq8cGAj2oKAW3e5R3n5f-11" value="" style="image;sketch=0;aspect=fixed;html=1;points=[];align=center;fontSize=12;image=img/lib/mscae/CustomDomain.svg;" vertex="1" parent="1">
          <mxGeometry x="-170" y="350" width="50" height="42" as="geometry" />
        </mxCell>
        <mxCell id="kq8cGAj2oKAW3e5R3n5f-27" value="" style="edgeStyle=none;rounded=0;orthogonalLoop=1;jettySize=auto;html=1;" edge="1" parent="1" source="kq8cGAj2oKAW3e5R3n5f-15" target="kq8cGAj2oKAW3e5R3n5f-6">
          <mxGeometry relative="1" as="geometry" />
        </mxCell>
        <mxCell id="kq8cGAj2oKAW3e5R3n5f-15" value="" style="image;html=1;image=img/lib/clip_art/computers/Software_128x128.png" vertex="1" parent="1">
          <mxGeometry x="-407.5" y="497.5" width="57.5" height="55" as="geometry" />
        </mxCell>
        <mxCell id="kq8cGAj2oKAW3e5R3n5f-16" value="" style="strokeWidth=2;html=1;shape=mxgraph.flowchart.annotation_2;align=left;labelPosition=right;pointerEvents=1;" vertex="1" parent="1">
          <mxGeometry x="-746" y="381" width="50" height="152" as="geometry" />
        </mxCell>
        <mxCell id="kq8cGAj2oKAW3e5R3n5f-18" value="" style="sketch=0;outlineConnect=0;fontColor=#232F3E;gradientColor=none;fillColor=#232F3D;strokeColor=none;dashed=0;verticalLabelPosition=bottom;verticalAlign=top;align=center;html=1;fontSize=12;fontStyle=0;aspect=fixed;pointerEvents=1;shape=mxgraph.aws4.authenticated_user;" vertex="1" parent="1">
          <mxGeometry x="-819" y="422.5" width="73" height="73" as="geometry" />
        </mxCell>
        <mxCell id="kq8cGAj2oKAW3e5R3n5f-22" value="" style="edgeStyle=none;rounded=0;orthogonalLoop=1;jettySize=auto;html=1;" edge="1" parent="1" source="kq8cGAj2oKAW3e5R3n5f-19" target="kq8cGAj2oKAW3e5R3n5f-5">
          <mxGeometry relative="1" as="geometry" />
        </mxCell>
        <mxCell id="kq8cGAj2oKAW3e5R3n5f-19" value="" style="verticalLabelPosition=bottom;html=1;verticalAlign=top;align=center;strokeColor=none;fillColor=#00BEF2;shape=mxgraph.azure.github_code;pointerEvents=1;" vertex="1" parent="1">
          <mxGeometry x="-510" y="350" width="50" height="50" as="geometry" />
        </mxCell>
        <mxCell id="kq8cGAj2oKAW3e5R3n5f-26" value="" style="edgeStyle=none;rounded=0;orthogonalLoop=1;jettySize=auto;html=1;" edge="1" parent="1" source="kq8cGAj2oKAW3e5R3n5f-20" target="kq8cGAj2oKAW3e5R3n5f-15">
          <mxGeometry relative="1" as="geometry" />
        </mxCell>
        <mxCell id="kq8cGAj2oKAW3e5R3n5f-20" value="" style="verticalLabelPosition=bottom;html=1;verticalAlign=top;align=center;strokeColor=none;fillColor=#00BEF2;shape=mxgraph.azure.github_code;pointerEvents=1;" vertex="1" parent="1">
          <mxGeometry x="-510" y="500" width="50" height="50" as="geometry" />
        </mxCell>
      </root>
    </mxGraphModel>
  </diagram>
</mxfile>
